<?xml version="1.0" standalone="no"?>
<!DOCTYPE svg PUBLIC "-//W3C//DTD SVG 20010904//EN" "http://www.w3.org/TR/2001/REC-SVG-20010904/DTD/svg10.dtd">
<svg version="1.0" xmlns="http://www.w3.org/2000/svg"
  width="700.000000pt" height="700.000000pt" viewBox="0 0 700.000000 700.000000"
  preserveAspectRatio="xMidYMid meet" fill="red">
  <metadata> Created by potrace 1.14, written by Peter Selinger 2001-2017 </metadata>

  <circle fill='#f09f33' cx="50%" cy="50%" r="200pt" />
  <g transform="translate(0.000000,700.000000) scale(0.100000,-0.100000)"
    fill="#330033" stroke="none">
    <path
      d="M3280 6994 c-19 -2 -84 -9 -145 -14 -578 -56 -1180 -283 -1660 -625
-237 -169 -531 -446 -709 -670 -416 -521 -673 -1147 -748 -1820 -17 -154 -17
-585 0 -730 69 -588 254 -1099 567 -1570 126 -189 242 -332 410 -504 580 -595
1295 -943 2140 -1043 145 -17 576 -17 730 0 822 91 1556 447 2131 1034 203
206 348 390 487 618 274 449 432 915 499 1465 16 135 16 591 0 730 -100 846
-447 1557 -1043 2141 -555 542 -1249 874 -2029 970 -117 15 -553 27 -630 18z
m734 -2729 c280 -421 511 -765 513 -765 2 0 287 227 635 505 347 278 633 504
635 501 2 -2 -110 -576 -249 -1275 l-253 -1271 -1795 0 -1796 0 -252 1271
c-139 699 -251 1273 -249 1275 2 3 288 -223 635 -501 348 -278 633 -505 635
-505 2 0 233 344 513 765 280 420 511 764 514 764 3 0 234 -344 514 -764z" />
  </g>
</svg>